PathFileType	4	(X/Y/Z)	T1_P2_NoVision_NoMovement_0_0-723.trc
DataRate	CameraRate	NumFrames	NumMarkers	Units	OrigDataRate	OrigDataStartFrame	OrigNumFrames
60	60	5	27	m	60	361	723
Frame#	Time	RHip			RKnee			RAnkle			RBigToe			RSmallToe			RHeel			LHip			LKnee			LAnkle			LBigToe			LSmallToe			LHeel			Neck			Head			Nose			RShoulder			RElbow			RWrist			RThumb			RIndex			RPinky			LShoulder			LElbow			LWrist			LThumb			LIndex			LPinky		
		X1	Y1	Z1	X2	Y2	Z2	X3	Y3	Z3	X4	Y4	Z4	X5	Y5	Z5	X6	Y6	Z6	X7	Y7	Z7	X8	Y8	Z8	X9	Y9	Z9	X10	Y10	Z10	X11	Y11	Z11	X12	Y12	Z12	X13	Y13	Z13	X14	Y14	Z14	X15	Y15	Z15	X16	Y16	Z16	X17	Y17	Z17	X18	Y18	Z18	X19	Y19	Z19	X20	Y20	Z20	X21	Y21	Z21	X22	Y22	Z22	X23	Y23	Z23	X24	Y24	Z24	X25	Y25	Z25	X26	Y26	Z26	X27	Y27	Z27
362	6.033333333333333	467.6745289546686	3633.766220224714	522.0446369149502	864.9576864676674	3680.8545956376506	532.8095871303791	1271.8328458245203	3798.958254710879	632.4361690220214	1315.0519653734846	3595.7849211866856	543.6535394816849	1323.0784347130932	3696.029008005535	525.2837709661147	1297.0843773528088	3778.4838546355663	633.7861257059201	470.04478529001074	3524.511033231346	725.4101854016815	884.9199260295628	3565.790947224015	733.7883790177876	1236.577902281373	3606.0173451194164	725.8878158400745	1318.644816239561	3516.4532981791976	671.6952985664601	1278.1330332046819	3458.414593322663	711.8124695744864	1274.9018775181644	3617.827054281047	717.5056696663617	-104.80479968120765	3530.765255905675	609.6610195209629	-359.1741049107492	3409.529588983814	530.7483520571734	-225.50401497060702	3384.046029579928	511.6592015156556	-25.38168230392297	3652.6165376309546	455.70582744042986	202.08002201187404	3676.8535378611286	416.40296318918354	444.1515991098435	3653.029916354533	372.74558165054646	571.5852391372468	3589.368020598641	385.4124428281748	595.4210335293104	3621.1433561510376	369.3010432628964	579.4498965323169	3633.983544775707	347.34912683342606	-18.691966479985286	3462.015207158379	736.5313132914221	239.45317821408878	3438.6539178351786	819.8508375657424	478.3031849251868	3404.043872151333	796.305695952221	574.5311057230331	3350.753200702232	714.4105644991325	587.8526862540087	3347.7233892108934	748.2425960744603	588.5661988671982	3331.348493256688	797.8385917118214
363	6.05	470.814483165271	3649.3229739710364	534.7409363946472	864.9164695160521	3680.685848202714	532.9311293159894	1265.7432757593792	3796.6350205037825	630.7991805916267	1321.802126769321	3611.377758641196	551.8224006457951	1323.2004370760105	3698.604916179537	521.5569075469883	1289.3288850520732	3756.353466509136	628.410761802937	466.9510199200976	3504.145467637212	719.3608833288536	885.0137582067141	3565.580976782378	733.6178240906221	1236.6462455329404	3605.964136919668	725.7741504745667	1318.7198174800908	3516.3277515519935	671.6727784866384	1278.3332164564995	3458.679905135435	711.8907898721834	1274.9308289372145	3617.819960681049	717.403580707487	-104.8282650232599	3530.769560607271	609.6983757406135	-359.2815661815378	3409.528394392372	530.703256833683	-216.82136682890157	3388.686229320291	513.6131566275609	-25.47233785322311	3652.2033522021143	455.49703165035186	202.1770426419916	3676.8275094466967	416.2348268066061	444.2296120431666	3653.238803635408	372.8480224202649	572.7102177620897	3587.7454961130607	385.50170829666456	595.4239713876328	3621.4664781746933	369.33570216392576	583.0130766845001	3629.615871954374	345.45331776149055	-18.717225689793736	3461.878696095307	736.4672173514193	239.58718859846118	3438.4637224403077	819.8062942061914	478.3123004322446	3402.939699945661	801.3598204334427	574.2487149418959	3350.9513841430607	714.534607019713	587.6937560887559	3348.740534613106	748.7130349733947	588.5528877432262	3331.8068914064115	798.1698387069799
364	6.066666666666666	470.92911621527696	3649.347999433303	534.719525201763	864.9277915780342	3680.670523872999	532.7775012357556	1265.5843004020478	3796.3941902297165	630.5653643620877	1318.1018978780037	3610.374286549253	555.6835024483931	1324.687236045199	3700.1319214485675	525.3778671652444	1289.0031713699505	3756.0778454372144	628.2506984994177	457.655101581771	3504.4342293042173	720.4350014590078	884.8800707005629	3563.5427288430865	737.9571462502099	1238.8954090262434	3600.805321844256	722.9260594892313	1318.517107142746	3521.407806446405	663.6446282148165	1271.3446358662934	3444.671068956739	698.892040451282	1274.871087733114	3620.1129289982932	712.6511149739035	-104.85616853689689	3530.5498484481227	609.5580934338633	-359.1359073060955	3410.6238431342776	526.751758765239	-225.5138133176726	3383.797632341947	511.5985716710818	-26.14705092861743	3635.4678830278494	442.3225861006196	202.23060240075966	3679.044888688277	412.21673445030575	444.3131181644909	3653.131028675514	372.81170083850185	567.2500002001772	3585.510295016798	384.4306623848807	595.4766803926861	3621.595325850718	369.4614889913589	587.0624880743841	3645.921597474184	357.62159932366467	-18.768793896121323	3461.976579433399	736.5099631775444	239.47868911937522	3438.4484638305726	819.7757025490225	478.38675761253035	3402.861605258675	801.3991348496098	574.3912641045503	3350.900270231178	714.6065025988811	587.8216512379522	3348.2636645193847	748.5455855018348	588.716829437897	3331.810627943824	798.2179538168291
365	6.083333333333333	471.02153434640854	3649.530899519666	534.8176018491273	871.6588671919201	3685.3392885572316	534.1378380835595	1265.845105603066	3796.502940182273	630.7236633648541	1325.5213037857402	3631.2244036677657	560.9559486684703	1324.5366711736438	3699.6798004740217	525.5274767867578	1289.2890778054928	3755.7739997138406	628.0593150664981	463.3636597787698	3508.3473587599906	721.8592225934345	885.3796844937592	3563.949230790143	738.169916723707	1236.643192711087	3605.699004679416	725.784941918223	1326.4829218011755	3537.2922492482703	677.5638120031794	1278.4374461188697	3459.1065627955186	712.0094987861272	1274.7846107967669	3617.628150839731	717.4101143282231	-104.95655746473197	3530.614742341879	609.5824424102992	-359.26399875057734	3410.5655319702605	526.7714892100992	-225.5669512923419	3383.5478717989713	511.4148934184268	-26.179586128608523	3635.6262735102255	442.42683977694486	202.31445239821716	3679.1191276202517	412.24429984501626	446.53637083213255	3635.3085060749595	369.97680443434405	567.1129914209857	3585.3783315862165	384.38708169326725	599.4136858106284	3637.2216212284106	381.00152920044343	581.1143603212354	3641.847565087881	356.6218365623697	-18.802927595001627	3461.9749024716853	736.4980767813402	239.5890958920201	3438.3940164977007	819.7759550514793	478.4024444684135	3402.9409473162737	801.3951448011155	574.3042910475083	3351.1962428004235	714.8177396889031	587.8447478456445	3348.5280140644163	748.9691928724587	588.5379101969395	3331.66416196469	798.1384776514976
366	6.1	470.73332916055637	3649.214938580724	534.6824061240551	863.0139126670108	3688.4846380387426	535.134006136138	1265.8255900026288	3796.8036459963323	630.8687853624115	1325.7322304531149	3631.5092704128706	561.1447357118132	1325.0527706637806	3700.5344051655866	526.126275005313	1289.221241794656	3756.3090098847792	628.5039103765503	463.27071971429024	3508.2286914463916	721.7972930878066	877.6272359753336	3567.210871373864	739.5626617311675	1236.2909136574804	3602.906498043411	729.6557353612434	1326.3002813804292	3536.983562447871	677.4016665012872	1271.2947070666205	3444.919283056789	699.0668133469974	1274.5885635266234	3618.1006813238564	717.9737844729859	-104.94045367095578	3530.5226614745493	609.5178338709428	-359.373732038237	3410.741524657966	526.8823721385917	-225.53998737452386	3383.7107929098293	511.5195182609725	-26.147746453430567	3635.480150083914	442.3701482169732	202.38405999195723	3676.9607683809177	416.3144542831094	449.2790107734469	3654.757395382875	373.7498955714327	570.9186688082251	3580.605958899343	382.2886965699473	599.554199519119	3637.593433420504	381.1106233504871	587.2978649536161	3646.356835238594	357.9693248626786	-23.35069593797476	3458.464112105714	734.9635715379167	239.62700623044523	3438.4151039044273	819.8538356743932	478.50155469169056	3402.9219612025777	801.4585225411031	574.3831952006768	3351.0039835037073	714.8663053497547	597.1925260229326	3364.754924846605	763.1243264940571	588.832786624828	3331.87698606611	798.2645652441321
